{"title":"Ponyo on the Cliff by the Sea (Gake no ue no Ponyo) 2008 BRrip 1","uid":9751895,"size":2195053445,"categoryP":"video","categoryS":"hd___movies","magnet":"?xt=urn:btih:1c846c158cee725164ad95348a008e3460fc25d6&amp;dn=Ponyo+on+the+Cliff+by+the+Sea+%28Gake+no+ue+no+Ponyo%29+2008+BRrip+1&amp;tr=udp%3A%2F%2Ftracker.openbittorrent.com%3A80&amp;tr=udp%3A%2F%2Fopen.demonii.com%3A1337&amp;tr=udp%3A%2F%2Ftracker.coppersurfer.tk%3A6969&amp;tr=udp%3A%2F%2Fexodus.desync.com%3A6969","seeders":7,"leechers":2,"uploader":"realOfek","files":2,"time":1394676176,"description":"Please leave feedback!\n\nSource: BDrip\n\nGeneral\nFormat                                   : MPEG-4\nFormat profile                           : Base Media\nCodec ID                                 : isom\nFile size                                : 2.04 GiB\nDuration                                 : 1h 40mn\nOverall bit rate mode                    : Variable\nOverall bit rate                         : 2 902 Kbps\nEncoded date                             : UTC 2014-03-06 22:53:42\nTagged date                              : UTC 2014-03-06 22:53:42\n\nVideo\nID                                       : 1\nFormat                                   : AVC\nFormat/Info                              : Advanced Video Codec\nFormat profile                           : &lt;a class=&quot;__cf_email__&quot; href=&quot;/cdn-cgi/l/email-protection&quot; data-cfemail=&quot;2f674648476f631b011f&quot;&gt;[email&amp;#160;protected]&lt;/a&gt;&lt;script cf-hash='f9e31' type=&quot;text/javascript&quot;&gt;\n/* &lt;![CDATA[ */!function(){try{var t=&quot;currentScript&quot;in document?document.currentScript:function(){for(var t=document.getElementsByTagName(&quot;script&quot;),e=t.length;e--;)if(t[e].getAttribute(&quot;cf-hash&quot;))return t[e]}();if(t&amp;&amp;t.previousSibling){var e,r,n,i,c=t.previousSibling,a=c.getAttribute(&quot;data-cfemail&quot;);if(a){for(e=&quot;&quot;,r=parseInt(a.substr(0,2),16),n=2;a.length-n;n+=2)i=parseInt(a.substr(n,2),16)^r,e+=String.fromCharCode(i);e=document.createTextNode(e),c.parentNode.replaceChild(e,c)}}}catch(u){}}();/* ]]&gt; */&lt;/script&gt;\nFormat settings, CABAC                   : Yes\nFormat settings, ReFrames                : 4 frames\nCodec ID                                 : avc1\nCodec ID/Info                            : Advanced Video Coding\nDuration                                 : 1h 40mn\nBit rate                                 : 2 499 Kbps\nMaximum bit rate                         : 12.8 Mbps\nWidth                                    : 1 920 pixels\nHeight                                   : 1 040 pixels\nDisplay aspect ratio                     : 1.85:1\nFrame rate mode                          : Constant\nFrame rate                               : 23.976 fps\nColor space                              : YUV\nChroma subsampling                       : 4:2:0\nBit depth                                : 8 bits\nScan type                                : Progressive\nBits/(Pixel*Frame)                       : 0.052\nStream size                              : 1.76 GiB (86%)\nTitle                                    : Video\nWriting library                          : x264 core 133 r2334 a3ac64b\nEncoding settings                        : cabac=1 / ref=4 / deblock=1:1:1 / analyse=0x3:0x133 / me=umh / subme=10 / psy=1 / psy_rd=0.40:0.00 / mixed_ref=1 / me_range=24 / chroma_me=1 / trellis=2 / 8x8dct=1 / cqm=0 / deadzone=21,11 / fast_pskip=1 / chroma_qp_offset=-2 / threads=12 / lookahead_threads=1 / sliced_threads=0 / nr=0 / decimate=1 / interlaced=0 / bluray_compat=0 / constrained_intra=0 / bframes=3 / b_pyramid=2 / b_adapt=2 / b_bias=0 / direct=3 / weightb=1 / open_gop=0 / weightp=2 / keyint=250 / keyint_min=23 / scenecut=40 / intra_refresh=0 / rc_lookahead=60 / rc=2pass / mbtree=1 / bitrate=2499 / ratetol=1.0 / qcomp=0.60 / qpmin=0 / qpmax=69 / qpstep=4 / cplxblur=20.0 / qblur=0.5 / ip_ratio=1.40 / aq=1:0.60\nEncoded date                             : UTC 2014-03-06 22:53:42\nTagged date                              : UTC 2014-03-06 22:55:43\n\nAudio #1\nID                                       : 2\nFormat                                   : AAC\nFormat/Info                              : Advanced Audio Codec\nFormat profile                           : LC\nCodec ID                                 : 40\nDuration                                 : 1h 40mn\nBit rate mode                            : Variable\nBit rate                                 : 315 Kbps\nMaximum bit rate                         : 440 Kbps\nChannel(s)                               : 2 channels\nChannel positions                        : Front: L R\nSampling rate                            : 48.0 KHz\nCompression mode                         : Lossy\nStream size                              : 227 MiB (11%)\nLanguage                                 : English\nEncoded date                             : UTC 2014-03-06 22:54:37\nTagged date                              : UTC 2014-03-06 22:55:43\n\nAudio #2\nID                                       : 3\nFormat                                   : AAC\nFormat/Info                              : Advanced Audio Codec\nFormat profile                           : HE-AAC / LC\nCodec ID                                 : 40\nDuration                                 : 1h 40mn\nBit rate mode                            : Variable\nBit rate                                 : 83.4 Kbps\nMaximum bit rate                         : 109 Kbps\nChannel(s)                               : 2 channels\nChannel positions                        : Front: L R\nSampling rate                            : 48.0 KHz / 24.0 KHz\nCompression mode                         : Lossy\nStream size                              : 60.2 MiB (3%)\nLanguage                                 : Japanese\nEncoded date                             : UTC 2014-03-06 22:55:42\nTagged date                              : UTC 2014-03-06 22:55:43\n\n\n\n\n\n\nEnjoy!","torrent":{"xt":"urn:btih:1c846c158cee725164ad95348a008e3460fc25d6","amp;dn":"Ponyo+on+the+Cliff+by+the+Sea+%28Gake+no+ue+no+Ponyo%29+2008+BRrip+1","amp;tr":["udp%3A%2F%2Ftracker.openbittorrent.com%3A80","udp%3A%2F%2Fopen.demonii.com%3A1337","udp%3A%2F%2Ftracker.coppersurfer.tk%3A6969","udp%3A%2F%2Fexodus.desync.com%3A6969"],"infoHash":"1c846c158cee725164ad95348a008e3460fc25d6","infoHashBuffer":{"type":"Buffer","data":[28,132,108,21,140,238,114,81,100,173,149,52,138,0,142,52,96,252,37,214]},"announce":[],"urlList":[]}}